#N canvas 0 54 1366 714 10;
#X declare -lib mrpeach;
#X declare -lib mrpeach;
#X declare -lib mrpeach;
#X msg 29 23 1 \, 0 3000;
#X obj 29 45 t b a;
#X obj 29 112 metro 500;
#X obj 29 158 f;
#X msg 29 180 1 1 0 \, 0 \$1 1;
#X obj 29 202 vline~;
#X obj 29 224 *~;
#X obj 51 257 *~;
#X obj 51 310 *~;
#X obj 51 332 +~ 80;
#X obj 51 435 +~;
#X obj 51 457 osc~;
#X obj 29 488 *~;
#X obj 58 65 line;
#X obj 58 137 * 200;
#X obj 80 91 * 300;
#X obj 150 202 sig~;
#X obj 67 284 *~ 130;
#X obj 67 365 osc~ 120;
#X obj 67 413 *~;
#X obj 83 390 *~ 70;
#X obj 92 524 *~;
#X obj 29 -41 tgl 15 0 empty empty empty 17 7 0 10 -262144 -1 -1 1
1;
#X floatatom 185 268 5 0 0 0 - - -;
#X floatatom 185 374 5 0 0 0 - - -;
#X msg 279 33 1 \, 0 3000;
#X obj 279 55 t b a;
#X obj 279 122 metro 500;
#X obj 279 168 f;
#X msg 279 190 1 1 0 \, 0 \$1 1;
#X obj 279 212 vline~;
#X obj 279 234 *~;
#X obj 301 267 *~;
#X obj 301 320 *~;
#X obj 301 342 +~ 80;
#X obj 301 445 +~;
#X obj 301 467 osc~;
#X obj 279 498 *~;
#X obj 308 75 line;
#X obj 308 147 * 200;
#X obj 330 101 * 300;
#X obj 400 212 sig~;
#X obj 317 294 *~ 130;
#X obj 317 375 osc~ 120;
#X obj 317 423 *~;
#X obj 333 400 *~ 70;
#X obj 332 534 *~;
#X obj 279 1 metro 500;
#X obj 279 -26 tgl 15 0 empty empty empty 17 7 0 10 -262144 -1 -1 1
1;
#X floatatom 438 278 5 0 0 0 - - -;
#X floatatom 439 384 5 0 0 0 - - -;
#X obj 29 -9 metro 499;
#X floatatom 185 316 5 0 0 0 - - -;
#X msg 185 295 80;
#X msg 185 244 200;
#X msg 185 354 50;
#X msg 438 251 200;
#X msg 439 363 40;
#X obj 535 391 hip~ 200;
#X obj 535 274 *~ 0.1;
#X obj 535 297 sqrt~;
#X obj 535 132 vline~;
#X obj 535 198 cos~;
#X obj 535 220 lop~ 0.1;
#X obj 535 176 -~ 0.25;
#X obj 535 154 *~ 0.5;
#X msg 535 110 0 \, 1 500;
#X text 606 110 press repeatedly;
#N canvas 823 195 368 237 regular-roll 0;
#X obj 74 193 rzero~ 0.9;
#X obj -2 66 phasor~ 1;
#X obj -2 139 wrap~;
#X obj 51 139 wrap~;
#X obj 102 139 wrap~;
#X obj 155 138 wrap~;
#X obj 68 66 unpack f f f f f f f f;
#X msg 89 44 2 0.1 3 0.05 4.2 0.02 5.6 0.012;
#X msg 107 23 1.3 0.1 1.7 0.05 2.4 0.02 8.1 0.012;
#X obj 89 -2 loadbang;
#X text 179 2 roll pattern;
#X obj 74 216 outlet~;
#X obj -2 -2 inlet~ speed;
#X obj -2 119 *~;
#X obj 51 119 *~;
#X obj 102 119 *~;
#X obj 155 118 *~;
#X obj -2 160 *~;
#X obj 51 160 *~;
#X obj 102 160 *~;
#X obj 155 160 *~;
#X connect 0 0 11 0;
#X connect 1 0 13 0;
#X connect 1 0 14 0;
#X connect 1 0 15 0;
#X connect 1 0 16 0;
#X connect 2 0 17 0;
#X connect 3 0 18 0;
#X connect 4 0 19 0;
#X connect 5 0 20 0;
#X connect 6 0 13 1;
#X connect 6 1 17 1;
#X connect 6 2 14 1;
#X connect 6 3 18 1;
#X connect 6 4 15 1;
#X connect 6 5 19 1;
#X connect 6 6 16 1;
#X connect 6 7 20 1;
#X connect 7 0 6 0;
#X connect 8 0 6 0;
#X connect 9 0 7 0;
#X connect 12 0 1 0;
#X connect 13 0 2 0;
#X connect 14 0 3 0;
#X connect 15 0 4 0;
#X connect 16 0 5 0;
#X connect 17 0 0 0;
#X connect 18 0 0 0;
#X connect 19 0 0 0;
#X connect 20 0 0 0;
#X restore 588 275 pd regular-roll;
#N canvas 504 203 414 498 irregular-ground 0;
#X obj 75 -33 noise~;
#X obj 18 -13 max~ 0;
#X msg 938 99 0.54;
#X obj 19 109 samphold~;
#X obj 19 132 rzero~ 0.99;
#X obj 20 208 outlet~;
#X obj 76 56 +~;
#X obj 76 9 *~ 0.001;
#X obj 19 182 *~;
#X obj 142 -23 *~ 100;
#X obj 142 -70 inlet~ speed;
#X obj 19 155 *~ 0.05;
#X floatatom 204 -42 5 0 0 0 - - -;
#X obj 141 6 phasor~ 5;
#X connect 0 0 7 0;
#X connect 0 0 1 0;
#X connect 1 0 3 0;
#X connect 3 0 4 0;
#X connect 4 0 11 0;
#X connect 6 0 3 1;
#X connect 7 0 6 0;
#X connect 8 0 5 0;
#X connect 9 0 13 0;
#X connect 10 0 9 0;
#X connect 10 0 8 1;
#X connect 11 0 8 0;
#X connect 12 0 9 1;
#X connect 12 0 13 1;
#X connect 13 0 6 1;
#X connect 13 0 8 0;
#X restore 588 332 pd irregular-ground;
#X obj 535 368 *~;
#X obj 588 307 *~ 0.5;
#N canvas 223 377 312 275 tincan 0;
#X obj 76 190 *~ 1000;
#X obj 76 232 *~ 0.4;
#X obj -2 0 inlet~;
#X obj 94 1 loadbang;
#X obj 76 253 outlet~;
#X msg 94 23 359 426 1748 3000 123;
#X obj 94 45 unpack f f f f f;
#X obj -2 135 bp~ 1 1;
#X obj 76 135 bp~ 1 1;
#X obj 143 136 bp~ 1 1;
#X obj 213 136 bp~ 1 1;
#X obj 76 157 *~ 0.3;
#X obj 213 157 *~ 0.2;
#X obj -2 158 *~ 0.2;
#X obj 143 157 *~ 0.3;
#X obj 76 211 clip~ -0.3 0.3;
#X obj 162 87 * 1.5;
#X obj 232 93 * 3.7;
#X obj 95 88 * 1.3;
#X obj 232 56 inlet;
#X connect 0 0 15 0;
#X connect 1 0 4 0;
#X connect 2 0 7 0;
#X connect 2 0 8 0;
#X connect 2 0 9 0;
#X connect 2 0 10 0;
#X connect 3 0 5 0;
#X connect 5 0 6 0;
#X connect 6 0 7 1;
#X connect 6 1 8 1;
#X connect 6 2 9 1;
#X connect 6 3 10 1;
#X connect 6 4 8 2;
#X connect 6 4 7 2;
#X connect 6 4 9 2;
#X connect 6 4 10 2;
#X connect 7 0 13 0;
#X connect 8 0 11 0;
#X connect 9 0 14 0;
#X connect 10 0 12 0;
#X connect 11 0 0 0;
#X connect 12 0 0 0;
#X connect 13 0 0 0;
#X connect 14 0 0 0;
#X connect 15 0 1 0;
#X connect 16 0 9 1;
#X connect 17 0 10 1;
#X connect 18 0 8 1;
#X connect 19 0 17 0;
#X connect 19 0 16 0;
#X connect 19 0 18 0;
#X connect 19 0 7 1;
#X coords 0 0 1 1 240 160 0;
#X restore 535 413 pd tincan;
#X floatatom 593 365 5 0 0 0 - - -;
#X obj 536 479 lop~;
#X floatatom 557 456 5 0 0 0 - - -;
#X floatatom 738 389 5 0 0 0 - - -;
#X text 735 373 100-130 is good;
#X obj 1068 43 noise~;
#X obj 1069 245 bp~ 4000 1;
#X obj 1097 65 lop~ 1;
#X obj 1097 87 env~;
#X obj 1097 109 moses 50;
#X obj 1142 133 moses 51;
#X msg 1142 155 bang;
#X msg 1262 204 1 \, 0 \$1;
#X obj 1262 226 line~;
#X obj 1262 248 *~;
#X obj 1069 265 *~;
#X obj 1204 223 vsl 15 128 0 1 0 0 empty empty empty 0 -9 0 10 -262144
-1 -1 0 1;
#X obj 1069 334 lop~;
#X obj 1142 220 * 10;
#X obj 1142 315 line;
#X msg 1142 296 \$1 200;
#X obj 1142 199 + 100;
#X obj 1142 277 * 0.4;
#X msg 1204 161 set \$1;
#X msg 1142 178 310;
#X floatatom 1204 53 5 0 0 0 - - -;
#X text 1200 32 user;
#X msg 1262 161 set \$1;
#X floatatom 1262 53 5 0 0 0 - - -;
#X msg 1262 181 16;
#X obj 617 477 -;
#X obj 617 433 t b f;
#X msg 617 455 1000;
#X floatatom 791 390 5 0 0 0 - - -;
#X floatatom 617 521 5 0 0 0 - - -;
#X obj 617 499 * 0.0006;
#N canvas 740 112 450 300 stream 0;
#X obj 111 222 mp3cast~;
#X msg 250 111 mpeg 44100 128 1 4;
#X obj 112 81 inlet~;
#X obj 155 81 inlet~;
#X obj 276 11 loadbang;
#X obj 276 30 t b b;
#X obj 245 8 bng 15 250 50 0 empty empty empty 17 7 0 10 -262144 -1
-1;
#X msg 220 266 connect s21.myradiostream.com 5266;
#X msg 224 59 connect localhost 8000;
#X msg 223 243 shoutcast;
#X msg 251 145 icecast2;
#X msg 250 84 passwd cellphonesynth;
#X msg 251 198 disconnect;
#X msg 251 168 mountpoint epict.mp3;
#X connect 1 0 0 0;
#X connect 2 0 0 0;
#X connect 3 0 0 1;
#X connect 4 0 5 0;
#X connect 5 0 8 0;
#X connect 5 1 11 0;
#X connect 5 1 1 0;
#X connect 5 1 10 0;
#X connect 5 1 13 0;
#X connect 6 0 5 0;
#X connect 8 0 0 0;
#X connect 10 0 0 0;
#X connect 11 0 0 0;
#X connect 12 0 0 0;
#X connect 13 0 0 0;
#X restore 1259 601 pd stream;
#X obj 533 588 throw~ a;
#X obj 1070 401 throw~ a;
#N canvas 596 421 450 300 stream 0;
#X obj 111 222 mp3cast~;
#X msg 250 111 mpeg 44100 128 1 4;
#X obj 112 81 inlet~;
#X obj 155 81 inlet~;
#X obj 276 11 loadbang;
#X obj 276 30 t b b;
#X obj 245 8 bng 15 250 50 0 empty empty empty 17 7 0 10 -262144 -1
-1;
#X msg 220 266 connect s21.myradiostream.com 5266;
#X msg 223 243 shoutcast;
#X msg 251 145 icecast2;
#X msg 250 84 passwd cellphonesynth;
#X msg 251 198 disconnect;
#X msg 251 168 mountpoint epictest.mp3;
#X msg 224 59 connect localhost 8001;
#X connect 1 0 0 0;
#X connect 2 0 0 0;
#X connect 3 0 0 1;
#X connect 4 0 5 0;
#X connect 5 0 13 0;
#X connect 5 1 10 0;
#X connect 5 1 1 0;
#X connect 5 1 9 0;
#X connect 5 1 12 0;
#X connect 6 0 5 0;
#X connect 9 0 0 0;
#X connect 10 0 0 0;
#X connect 11 0 0 0;
#X connect 12 0 0 0;
#X connect 13 0 0 0;
#X restore 1259 576 pd stream;
#X obj 1168 494 catch~ a;
#X obj 1226 494 catch~ b;
#X obj 333 581 throw~ b;
#X obj 93 573 throw~ b;
#X text 1148 459 split up signals to broadcast on;
#X text 1148 472 different ports;
#X obj 1173 539 dac~;
#X obj 843 553 freeverb~;
#X obj 535 242 *~ 8;
#X floatatom 740 226 5 0 0 0 - - -;
#X floatatom 183 -25 5 0 0 0 - - -;
#X floatatom 434 -15 5 0 0 0 - - -;
#X text 26 -134 everything that has a numberbox can be controlled by
a user;
#N canvas 672 82 683 686 blips 0;
#X obj 183 82 inlet;
#X obj 195 304 *~;
#X obj 310 292 vline~;
#X obj 209 280 osc~;
#X obj 194 330 *~;
#X msg 307 228 575;
#X obj 287 41 metro 500;
#X obj 340 12 inlet;
#X obj 292 9 tgl 15 0 empty empty empty 17 7 0 10 -262144 -1 -1 0 1
;
#X obj 287 64 random 18;
#X obj 291 98 sel 1 2 3 4 5 6 7 8 9;
#X msg 338 227 635;
#X msg 371 226 447;
#X msg 405 225 436;
#X msg 307 158 set \$1;
#X obj 307 136 random 1000;
#X msg 385 158 set \$1;
#X obj 385 136 random 1000;
#X msg 462 158 set \$1;
#X obj 462 136 random 1000;
#X msg 537 158 set \$1;
#X obj 537 136 random 1000;
#X floatatom 449 74 5 0 0 0 - - -;
#X obj 195 250 osc~;
#X obj 195 226 *;
#X obj 194 367 outlet~;
#X msg 306 258 0.08 2 0 \, 0 \$1 1;
#X floatatom 163 195 5 0 0 0 - - -;
#X obj 161 166 * 0.008;
#X connect 0 0 28 0;
#X connect 1 0 4 0;
#X connect 2 0 4 1;
#X connect 3 0 1 1;
#X connect 4 0 25 0;
#X connect 5 0 26 0;
#X connect 5 0 24 0;
#X connect 6 0 9 0;
#X connect 7 0 6 1;
#X connect 8 0 6 0;
#X connect 9 0 10 0;
#X connect 9 0 22 0;
#X connect 10 0 5 0;
#X connect 10 1 11 0;
#X connect 10 2 12 0;
#X connect 10 3 15 0;
#X connect 10 3 13 0;
#X connect 10 4 17 0;
#X connect 10 5 19 0;
#X connect 10 7 21 0;
#X connect 10 9 3 0;
#X connect 11 0 26 0;
#X connect 11 0 24 0;
#X connect 12 0 26 0;
#X connect 12 0 24 0;
#X connect 13 0 26 0;
#X connect 13 0 24 0;
#X connect 14 0 5 0;
#X connect 15 0 14 0;
#X connect 16 0 11 0;
#X connect 17 0 16 0;
#X connect 18 0 12 0;
#X connect 19 0 18 0;
#X connect 20 0 13 0;
#X connect 21 0 20 0;
#X connect 23 0 1 0;
#X connect 24 0 23 0;
#X connect 26 0 2 0;
#X connect 27 0 24 1;
#X connect 28 0 27 0;
#X restore 872 187 pd blips;
#X floatatom 872 133 5 0 0 0 - - -;
#X floatatom 917 133 5 0 0 0 - - -;
#N canvas 123 82 683 686 blips 0;
#X obj 183 82 inlet;
#X obj 195 304 *~;
#X obj 310 292 vline~;
#X obj 209 280 osc~;
#X obj 194 330 *~;
#X msg 307 228 159;
#X obj 287 41 metro 500;
#X obj 340 12 inlet;
#X obj 292 9 tgl 15 0 empty empty empty 17 7 0 10 -262144 -1 -1 0 1
;
#X obj 287 64 random 18;
#X obj 291 98 sel 1 2 3 4 5 6 7 8 9;
#X msg 338 227 203;
#X msg 371 226 840;
#X msg 405 225 823;
#X msg 307 158 set \$1;
#X obj 307 136 random 1000;
#X msg 385 158 set \$1;
#X obj 385 136 random 1000;
#X msg 462 158 set \$1;
#X obj 462 136 random 1000;
#X msg 537 158 set \$1;
#X obj 537 136 random 1000;
#X floatatom 449 74 5 0 0 0 - - -;
#X obj 195 250 osc~;
#X obj 195 226 *;
#X obj 194 367 outlet~;
#X msg 306 258 0.08 \, 0 \$1 1;
#X floatatom 153 185 5 0 0 0 - - -;
#X obj 151 156 * 0.008;
#X connect 0 0 28 0;
#X connect 1 0 4 0;
#X connect 2 0 4 1;
#X connect 3 0 1 1;
#X connect 4 0 25 0;
#X connect 5 0 26 0;
#X connect 5 0 24 0;
#X connect 5 0 3 0;
#X connect 6 0 9 0;
#X connect 7 0 6 1;
#X connect 8 0 6 0;
#X connect 9 0 10 0;
#X connect 9 0 22 0;
#X connect 10 0 5 0;
#X connect 10 1 11 0;
#X connect 10 2 12 0;
#X connect 10 3 15 0;
#X connect 10 3 13 0;
#X connect 10 4 17 0;
#X connect 10 5 19 0;
#X connect 10 7 21 0;
#X connect 11 0 26 0;
#X connect 11 0 24 0;
#X connect 12 0 26 0;
#X connect 12 0 24 0;
#X connect 13 0 26 0;
#X connect 13 0 24 0;
#X connect 14 0 5 0;
#X connect 15 0 14 0;
#X connect 16 0 11 0;
#X connect 17 0 16 0;
#X connect 18 0 12 0;
#X connect 19 0 18 0;
#X connect 20 0 13 0;
#X connect 21 0 20 0;
#X connect 23 0 1 0;
#X connect 24 0 23 0;
#X connect 26 0 2 0;
#X connect 27 0 24 1;
#X connect 28 0 27 0;
#X restore 934 187 pd blips;
#X floatatom 979 133 5 0 0 0 - - -;
#N canvas 316 207 1031 522 OSC_stuff 1;
#X obj 25 282 import mrpeach;
#X msg 24 321 connect localhost 10000;
#X obj 23 460 udpsend;
#X floatatom 280 269 5 0 0 0 - - -;
#X obj 192 434 packOSC;
#X floatatom 232 270 5 0 0 0 - - -;
#X floatatom 323 270 5 0 0 0 - - -;
#X floatatom 365 269 5 0 0 0 - - -;
#X floatatom 408 267 5 0 0 0 - - -;
#X floatatom 453 270 5 0 0 0 - - -;
#X msg 225 377 send /blobs/pos/x/y/r/g/b \$2 \$1 \$3 \$4 \$5 \$6;
#X obj 365 289 t b f;
#X obj 408 289 t b f;
#X obj 453 289 t b f;
#X text 462 249 b;
#X text 419 246 g;
#X text 284 251 x;
#X text 231 252 blob;
#X text 324 251 y;
#X text 375 246 r;
#X obj 323 289 t b f;
#X obj 232 292 t b f;
#X text 343 410 not sending hue to udp \, it's not being used in processing
;
#X obj 225 352 pack f f f f f f;
#X obj 394 174 outlet;
#X obj 493 96 OSCroute /blobs;
#X obj 927 114 OSCsender;
#X obj 926 87 OSCreceiver;
#X obj 491 174 outlet;
#X obj 576 174 outlet;
#X obj 394 145 OSCroute /0;
#X obj 491 145 OSCroute /1;
#X obj 576 145 OSCroute /2;
#X obj 666 174 outlet;
#X obj 666 145 OSCroute /3;
#X obj 748 174 outlet;
#X obj 748 145 OSCroute /5;
#X obj 214 71 OSCroute /x;
#X obj 211 43 OSCroute /pos;
#X obj 214 95 OSCroute /y;
#X obj 211 125 OSCroute /color;
#X obj 214 148 OSCroute /r;
#X obj 213 174 OSCroute /g;
#X obj 213 201 OSCroute /b;
#X obj 493 71 dumpOSC 44000;
#X connect 1 0 2 0;
#X connect 3 0 23 0;
#X connect 4 0 2 0;
#X connect 5 0 21 0;
#X connect 6 0 20 0;
#X connect 7 0 11 0;
#X connect 8 0 12 0;
#X connect 9 0 13 0;
#X connect 10 0 4 0;
#X connect 11 0 23 0;
#X connect 11 1 23 3;
#X connect 12 0 23 0;
#X connect 12 1 23 4;
#X connect 13 0 23 0;
#X connect 13 1 23 5;
#X connect 20 0 23 0;
#X connect 20 1 23 2;
#X connect 21 0 23 0;
#X connect 21 1 23 1;
#X connect 23 0 10 0;
#X connect 25 0 30 0;
#X connect 25 0 31 0;
#X connect 25 0 32 0;
#X connect 25 0 34 0;
#X connect 25 0 36 0;
#X connect 25 0 5 0;
#X connect 30 0 24 0;
#X connect 30 0 38 0;
#X connect 30 0 40 0;
#X connect 31 0 28 0;
#X connect 31 0 38 0;
#X connect 31 0 40 0;
#X connect 32 0 29 0;
#X connect 32 0 38 0;
#X connect 32 0 40 0;
#X connect 34 0 33 0;
#X connect 34 0 38 0;
#X connect 34 0 40 0;
#X connect 36 0 35 0;
#X connect 36 0 38 0;
#X connect 36 0 40 0;
#X connect 37 0 3 0;
#X connect 38 0 37 0;
#X connect 38 0 39 0;
#X connect 39 0 6 0;
#X connect 40 0 41 0;
#X connect 40 0 42 0;
#X connect 40 0 43 0;
#X connect 41 0 7 0;
#X connect 42 0 8 0;
#X connect 43 0 9 0;
#X connect 44 0 25 0;
#X restore 653 -163 pd OSC_stuff;
#X obj 780 101 print b;
#X obj 520 -96 OSCroute /x;
#X obj 520 -124 OSCroute /pos;
#X obj 520 -72 OSCroute /y;
#X obj 520 -42 OSCroute /color;
#X obj 520 -19 OSCroute /r;
#X obj 519 7 OSCroute /g;
#X obj 519 34 OSCroute /b;
#X obj 685 -82 OSCroute /x;
#X obj 682 -110 OSCroute /pos;
#X obj 685 -58 OSCroute /y;
#X obj 682 -28 OSCroute /color;
#X obj 685 -5 OSCroute /r;
#X obj 684 21 OSCroute /g;
#X obj 684 48 OSCroute /b;
#X obj 816 -83 OSCroute /x;
#X obj 813 -111 OSCroute /pos;
#X obj 816 -59 OSCroute /y;
#X obj 813 -29 OSCroute /color;
#X obj 816 -6 OSCroute /r;
#X obj 815 20 OSCroute /g;
#X obj 815 47 OSCroute /b;
#X obj 931 -83 OSCroute /x;
#X obj 928 -111 OSCroute /pos;
#X obj 931 -59 OSCroute /y;
#X obj 928 -29 OSCroute /color;
#X obj 931 -6 OSCroute /r;
#X obj 930 20 OSCroute /g;
#X obj 930 47 OSCroute /b;
#X obj 1126 -112 OSCroute /x;
#X obj 1123 -140 OSCroute /pos;
#X obj 1126 -88 OSCroute /y;
#X obj 1123 -58 OSCroute /color;
#X obj 1126 -35 OSCroute /r;
#X obj 1125 -9 OSCroute /g;
#X obj 1125 18 OSCroute /b;
#X obj 902 582 throw~ a;
#X obj 837 582 throw~ b;
#X obj 33 -77 loadbang;
#X msg 200 -94 \; pd dsp \$1;
#X obj 201 -115 tgl 15 0 empty empty empty 17 7 0 10 -262144 -1 -1
1 1;
#X obj 92 546 *~ 1;
#X obj 332 556 *~ 1;
#X obj 536 537 *~ 0.8;
#X obj 1069 354 *~ 0.5;
#X connect 0 0 1 0;
#X connect 1 0 2 0;
#X connect 1 1 13 0;
#X connect 2 0 3 0;
#X connect 3 0 4 0;
#X connect 4 0 5 0;
#X connect 5 0 6 0;
#X connect 5 0 6 1;
#X connect 6 0 7 0;
#X connect 6 0 12 0;
#X connect 6 0 7 1;
#X connect 7 0 8 0;
#X connect 8 0 9 0;
#X connect 9 0 10 0;
#X connect 10 0 11 0;
#X connect 11 0 12 1;
#X connect 12 0 21 0;
#X connect 13 0 14 0;
#X connect 13 0 15 0;
#X connect 13 0 16 0;
#X connect 14 0 3 1;
#X connect 15 0 2 1;
#X connect 16 0 17 0;
#X connect 16 0 20 0;
#X connect 16 0 21 1;
#X connect 17 0 8 1;
#X connect 18 0 19 0;
#X connect 19 0 10 1;
#X connect 20 0 19 1;
#X connect 21 0 173 0;
#X connect 22 0 48 0;
#X connect 22 0 51 0;
#X connect 23 0 17 1;
#X connect 24 0 20 1;
#X connect 25 0 26 0;
#X connect 26 0 27 0;
#X connect 26 1 38 0;
#X connect 27 0 28 0;
#X connect 28 0 29 0;
#X connect 29 0 30 0;
#X connect 30 0 31 0;
#X connect 30 0 31 1;
#X connect 31 0 32 0;
#X connect 31 0 37 0;
#X connect 31 0 32 1;
#X connect 32 0 33 0;
#X connect 33 0 34 0;
#X connect 34 0 35 0;
#X connect 35 0 36 0;
#X connect 36 0 37 1;
#X connect 37 0 46 0;
#X connect 38 0 39 0;
#X connect 38 0 40 0;
#X connect 38 0 41 0;
#X connect 39 0 28 1;
#X connect 40 0 27 1;
#X connect 41 0 42 0;
#X connect 41 0 45 0;
#X connect 41 0 46 1;
#X connect 42 0 33 1;
#X connect 43 0 44 0;
#X connect 44 0 35 1;
#X connect 45 0 44 1;
#X connect 46 0 174 0;
#X connect 47 0 25 0;
#X connect 47 0 66 0;
#X connect 48 0 47 0;
#X connect 49 0 42 1;
#X connect 50 0 45 1;
#X connect 51 0 0 0;
#X connect 52 0 9 1;
#X connect 53 0 52 0;
#X connect 54 0 23 0;
#X connect 55 0 24 0;
#X connect 56 0 49 0;
#X connect 57 0 50 0;
#X connect 58 0 72 0;
#X connect 59 0 60 0;
#X connect 60 0 70 0;
#X connect 61 0 65 0;
#X connect 62 0 63 0;
#X connect 63 0 121 0;
#X connect 64 0 62 0;
#X connect 65 0 64 0;
#X connect 66 0 61 0;
#X connect 68 0 70 1;
#X connect 69 0 70 1;
#X connect 70 0 58 0;
#X connect 71 0 69 0;
#X connect 72 0 74 0;
#X connect 73 0 58 1;
#X connect 74 0 175 0;
#X connect 75 0 74 1;
#X connect 76 0 72 1;
#X connect 76 0 104 0;
#X connect 78 0 79 0;
#X connect 78 0 80 0;
#X connect 79 0 88 0;
#X connect 80 0 81 0;
#X connect 81 0 82 0;
#X connect 82 1 83 0;
#X connect 83 0 84 0;
#X connect 84 0 97 0;
#X connect 84 0 102 0;
#X connect 85 0 86 0;
#X connect 86 0 87 0;
#X connect 86 0 87 1;
#X connect 87 0 88 1;
#X connect 88 0 90 0;
#X connect 89 0 176 1;
#X connect 90 0 176 0;
#X connect 91 0 79 1;
#X connect 91 0 95 0;
#X connect 92 0 90 1;
#X connect 93 0 92 0;
#X connect 94 0 91 0;
#X connect 95 0 93 0;
#X connect 96 0 97 0;
#X connect 97 0 94 0;
#X connect 98 0 96 0;
#X connect 100 0 102 0;
#X connect 101 0 100 0;
#X connect 102 0 85 0;
#X connect 103 0 108 0;
#X connect 104 0 105 0;
#X connect 104 1 103 1;
#X connect 105 0 103 0;
#X connect 106 0 75 0;
#X connect 107 0 175 1;
#X connect 108 0 107 0;
#X connect 113 0 119 0;
#X connect 113 0 119 1;
#X connect 114 0 119 1;
#X connect 114 0 119 0;
#X connect 120 0 169 0;
#X connect 120 1 168 0;
#X connect 121 0 59 0;
#X connect 121 0 68 0;
#X connect 121 0 71 0;
#X connect 122 0 121 1;
#X connect 123 0 51 1;
#X connect 124 0 47 1;
#X connect 126 0 120 0;
#X connect 127 0 126 0;
#X connect 127 0 129 0;
#X connect 128 0 126 1;
#X connect 129 0 120 1;
#X connect 130 0 129 1;
#X connect 131 0 134 0;
#X connect 131 0 136 0;
#X connect 131 1 141 0;
#X connect 131 2 148 0;
#X connect 131 3 155 0;
#X connect 131 4 162 0;
#X connect 133 0 123 0;
#X connect 134 0 133 0;
#X connect 134 0 135 0;
#X connect 135 0 23 0;
#X connect 136 0 137 0;
#X connect 136 0 138 0;
#X connect 136 0 139 0;
#X connect 137 0 52 0;
#X connect 138 0 24 0;
#X connect 139 0 49 0;
#X connect 140 0 124 0;
#X connect 141 0 140 0;
#X connect 141 0 142 0;
#X connect 142 0 49 0;
#X connect 143 0 144 0;
#X connect 143 0 145 0;
#X connect 143 0 146 0;
#X connect 144 0 50 0;
#X connect 145 0 34 1;
#X connect 147 0 122 0;
#X connect 148 0 147 0;
#X connect 148 0 149 0;
#X connect 149 0 73 0;
#X connect 149 0 76 0;
#X connect 150 0 151 0;
#X connect 150 0 152 0;
#X connect 150 0 153 0;
#X connect 152 0 106 0;
#X connect 154 0 127 0;
#X connect 155 0 154 0;
#X connect 155 0 156 0;
#X connect 156 0 128 0;
#X connect 157 0 158 0;
#X connect 157 0 159 0;
#X connect 157 0 160 0;
#X connect 158 0 130 0;
#X connect 161 0 98 0;
#X connect 162 0 161 0;
#X connect 162 0 163 0;
#X connect 163 0 101 0;
#X connect 164 0 165 0;
#X connect 164 0 166 0;
#X connect 164 0 167 0;
#X connect 170 0 22 0;
#X connect 170 0 172 0;
#X connect 172 0 171 0;
#X connect 173 0 116 0;
#X connect 174 0 115 0;
#X connect 175 0 110 0;
#X connect 175 0 120 0;
#X connect 175 0 120 1;
#X connect 176 0 111 0;
#X connect 176 0 120 0;
#X connect 176 0 120 1;
