#N canvas 840 22 840 1002 10;
#X obj 86 53 bng 15 250 50 0 empty empty empty 0 -6 0 8 -262144 -1
-1;
#X obj 21 13 TuioClient;
#X obj 57 107 route addObject removeObject updateObject;
#X obj 15 258 unpack \$1 \$2;
#X obj 109 258 unpack \$1 \$2;
#X text 127 46 see the help patch for the TuioClient for more info
;
#X text 126 13 simple example patch showing how to receive and unpack
the TUIO event messages;
#X obj 319 402 output~;
#X obj 110 387 dsp~;
#X obj 108 332 tgl 15 0 empty empty empty 17 7 0 10 -262144 -1 -1 0
1;
#X msg 119 300 0;
#X msg 82 300 1;
#X obj 268 289 r 1-update;
#X msg 247 165 \; \$2-update \$3 \$4 \$5;
#X obj 363 289 r 2-update;
#N canvas 344 446 692 532 tuio-sound 0;
#X obj -1866 184 * 480;
#X obj -1819 184 * 360;
#X obj -1819 153 / 6.28;
#X floatatom -1920 213 5 0 0 0 - - -;
#X floatatom -1866 213 5 0 0 0 - - -;
#X floatatom -1819 213 5 0 0 0 - - -;
#X text -1866 240 y-axis;
#X text -1920 240 x-axis;
#X text -1819 238 angle;
#X obj -1920 184 * 640;
#X obj -1920 296 osc~;
#X obj -1920 267 *~ 2;
#X obj -1866 296 osc~;
#X obj -1866 267 *~ 2;
#X obj -1819 296 osc~;
#X obj -1819 267 *~ 3;
#X obj -1908 95 unpack \$1 \$2 \$3;
#X obj -1865 366 outlet~;
#X obj -1873 57 inlet;
#X connect 0 0 4 0;
#X connect 1 0 5 0;
#X connect 2 0 1 0;
#X connect 3 0 11 0;
#X connect 4 0 13 0;
#X connect 5 0 15 0;
#X connect 9 0 3 0;
#X connect 10 0 17 0;
#X connect 11 0 10 0;
#X connect 12 0 17 0;
#X connect 13 0 12 0;
#X connect 14 0 17 0;
#X connect 15 0 14 0;
#X connect 16 0 9 0;
#X connect 16 1 0 0;
#X connect 16 2 2 0;
#X connect 18 0 16 0;
#X restore 262 338 pd tuio-sound;
#N canvas 344 446 692 532 tuio-sound 0;
#X obj -1866 184 * 480;
#X obj -1819 184 * 360;
#X obj -1819 153 / 6.28;
#X floatatom -1920 213 5 0 0 0 - - -;
#X floatatom -1866 213 5 0 0 0 - - -;
#X floatatom -1819 213 5 0 0 0 - - -;
#X text -1866 240 y-axis;
#X text -1920 240 x-axis;
#X text -1819 238 angle;
#X obj -1920 184 * 640;
#X obj -1920 296 osc~;
#X obj -1920 267 *~ 2;
#X obj -1866 296 osc~;
#X obj -1866 267 *~ 2;
#X obj -1819 296 osc~;
#X obj -1819 267 *~ 3;
#X obj -1908 95 unpack \$1 \$2 \$3;
#X obj -1865 366 outlet~;
#X obj -1873 57 inlet;
#X connect 0 0 4 0;
#X connect 1 0 5 0;
#X connect 2 0 1 0;
#X connect 3 0 11 0;
#X connect 4 0 13 0;
#X connect 5 0 15 0;
#X connect 9 0 3 0;
#X connect 10 0 17 0;
#X connect 11 0 10 0;
#X connect 12 0 17 0;
#X connect 13 0 12 0;
#X connect 14 0 17 0;
#X connect 15 0 14 0;
#X connect 16 0 9 0;
#X connect 16 1 0 0;
#X connect 16 2 2 0;
#X connect 18 0 16 0;
#X restore 374 338 pd tuio-sound;
#N canvas 344 446 692 532 tuio-sound 0;
#X obj -1866 184 * 480;
#X obj -1819 184 * 360;
#X obj -1819 153 / 6.28;
#X floatatom -1920 213 5 0 0 0 - - -;
#X floatatom -1866 213 5 0 0 0 - - -;
#X floatatom -1819 213 5 0 0 0 - - -;
#X text -1866 240 y-axis;
#X text -1920 240 x-axis;
#X text -1819 238 angle;
#X obj -1920 184 * 640;
#X obj -1920 296 osc~;
#X obj -1920 267 *~ 2;
#X obj -1866 296 osc~;
#X obj -1866 267 *~ 2;
#X obj -1819 296 osc~;
#X obj -1819 267 *~ 3;
#X obj -1908 95 unpack \$1 \$2 \$3;
#X obj -1865 366 outlet~;
#X obj -1873 57 inlet;
#X connect 0 0 4 0;
#X connect 1 0 5 0;
#X connect 2 0 1 0;
#X connect 3 0 11 0;
#X connect 4 0 13 0;
#X connect 5 0 15 0;
#X connect 9 0 3 0;
#X connect 10 0 17 0;
#X connect 11 0 10 0;
#X connect 12 0 17 0;
#X connect 13 0 12 0;
#X connect 14 0 17 0;
#X connect 15 0 14 0;
#X connect 16 0 9 0;
#X connect 16 1 0 0;
#X connect 16 2 2 0;
#X connect 18 0 16 0;
#X restore 575 338 pd tuio-sound;
#N canvas 344 446 692 532 tuio-sound 0;
#X obj -1866 184 * 480;
#X obj -1819 184 * 360;
#X obj -1819 153 / 6.28;
#X floatatom -1920 213 5 0 0 0 - - -;
#X floatatom -1866 213 5 0 0 0 - - -;
#X floatatom -1819 213 5 0 0 0 - - -;
#X text -1866 240 y-axis;
#X text -1920 240 x-axis;
#X text -1819 238 angle;
#X obj -1920 184 * 640;
#X obj -1920 296 osc~;
#X obj -1920 267 *~ 2;
#X obj -1866 296 osc~;
#X obj -1866 267 *~ 2;
#X obj -1819 296 osc~;
#X obj -1819 267 *~ 3;
#X obj -1908 95 unpack \$1 \$2 \$3;
#X obj -1865 366 outlet~;
#X obj -1873 57 inlet;
#X connect 0 0 4 0;
#X connect 1 0 5 0;
#X connect 2 0 1 0;
#X connect 3 0 11 0;
#X connect 4 0 13 0;
#X connect 5 0 15 0;
#X connect 9 0 3 0;
#X connect 10 0 17 0;
#X connect 11 0 10 0;
#X connect 12 0 17 0;
#X connect 13 0 12 0;
#X connect 14 0 17 0;
#X connect 15 0 14 0;
#X connect 16 0 9 0;
#X connect 16 1 0 0;
#X connect 16 2 2 0;
#X connect 18 0 16 0;
#X restore 480 338 pd tuio-sound;
#X obj 469 289 r 0-update;
#X obj 565 289 r 5-update;
#X connect 1 0 2 0;
#X connect 1 1 0 0;
#X connect 2 0 3 0;
#X connect 2 1 4 0;
#X connect 2 2 13 0;
#X connect 3 1 11 0;
#X connect 4 1 10 0;
#X connect 9 0 8 0;
#X connect 10 0 9 0;
#X connect 11 0 9 0;
#X connect 12 0 15 0;
#X connect 14 0 16 0;
#X connect 15 0 7 0;
#X connect 16 0 7 1;
#X connect 17 0 7 1;
#X connect 18 0 7 0;
#X connect 19 0 18 0;
#X connect 20 0 17 0;
