#N canvas 487 93 1063 413 10;
#X declare -lib mrpeach;
#X obj 33 60 import mrpeach;
#X obj 28 327 udpsend;
#X obj 44 293 packOSC;
#X floatatom 55 157 5 0 0 0 - - -;
#X floatatom 211 157 5 0 0 0 - - -;
#X floatatom 369 157 5 0 0 0 - - -;
#X floatatom 537 157 5 0 0 0 - - -;
#X floatatom 706 157 5 0 0 0 - - -;
#X floatatom 874 157 5 0 0 0 - - -;
#X msg 34 89 connect localhost 44000;
#X floatatom 437 80 5 0 0 0 BLOB_NUMBER - -;
#X obj 63 183 pack;
#X obj 222 183 pack;
#X obj 378 183 pack;
#X obj 546 183 pack;
#X obj 715 183 pack;
#X obj 880 183 pack;
#X msg 48 208 send /blobs/\$2/pos/x \$1;
#X msg 204 208 send /blobs/\$2/pos/y \$1;
#X msg 362 208 send /blobs/\$2/color/r \$1;
#X msg 530 208 send /blobs/\$2/color/g \$1;
#X msg 699 208 send /blobs/\$2/color/b \$1;
#X msg 867 208 send /blobs/\$2/color/hue \$1;
#X connect 2 0 1 0;
#X connect 3 0 11 0;
#X connect 4 0 12 0;
#X connect 5 0 13 0;
#X connect 6 0 14 0;
#X connect 7 0 15 0;
#X connect 8 0 16 0;
#X connect 9 0 1 0;
#X connect 10 0 11 1;
#X connect 10 0 12 1;
#X connect 10 0 13 1;
#X connect 10 0 14 1;
#X connect 10 0 15 1;
#X connect 10 0 16 1;
#X connect 11 0 17 0;
#X connect 12 0 18 0;
#X connect 13 0 19 0;
#X connect 14 0 20 0;
#X connect 15 0 21 0;
#X connect 16 0 22 0;
#X connect 17 0 2 0;
#X connect 18 0 2 0;
#X connect 19 0 2 0;
#X connect 20 0 2 0;
#X connect 21 0 2 0;
#X connect 22 0 2 0;
